{"title":"Triple.9.2016.WEBRip.480p.x264.AAC-VYTO [P2PDL]","uid":14428405,"size":427818387,"categoryP":"video","categoryS":"movies","magnet":"?xt=urn:btih:73b46d32cd0d2aa41b32f48f3e4f938c21aadc52&amp;dn=Triple.9.2016.WEBRip.480p.x264.AAC-VYTO+%5BP2PDL%5D&amp;tr=udp%3A%2F%2Ftracker.leechers-paradise.org%3A6969&amp;tr=udp%3A%2F%2Fzer0day.ch%3A1337&amp;tr=udp%3A%2F%2Fopen.demonii.com%3A1337&amp;tr=udp%3A%2F%2Ftracker.coppersurfer.tk%3A6969&amp;tr=udp%3A%2F%2Fexodus.desync.com%3A6969","seeders":5,"leechers":5,"uploader":"VYTOP2PDL","files":6,"time":1461589995,"description":"Triple.9.2016.WEBRip.480p.x264.AAC-VYTO\r\n\r\n\r\nGenre: Action, Crime, Drama  \nhttp://www.imdb.com/title/tt1712261/\r\n\r\n\r\nFormat                                   : MPEG-4\r\nFile size                                : 402 MiB\r\nDuration                                 : 1h 50mn\r\nOverall bit rate                         : 508 Kbps\r\n\r\nVideo\r\nFormat                                   : AVC\r\nBit rate                                 : 465 Kbps\r\nWidth                                    : 720 pixels\r\nHeight                                   : 304 pixels\r\nDisplay aspect ratio                     : 2.35:1\r\nFrame rate mode                          : Constant\r\nFrame rate                               : 25.000 fps\r\nBit depth                                : 8 bits\r\nStream size                              : 368 MiB (91%)\r\nWriting library                          : x264\r\n\r\nAudio\r\nFormat                                   : AAC\r\nBit rate                                 : 40.0 Kbps\r\nMaximum bit rate                         : 60.0 Kbps\r\nChannel positions                        : Front: L R\r\nSampling rate                            : 48.0 KHz\r\nFrame rate                               : 23.438 fps\r\nStream size                              : 31.6 MiB (8%)\r\nLanguage                                 : English\r\n\r\nSubtitle                                 : N/a\r\n\r\nScreen shots: (Click links to view)\r\n \nhttps://ititli.com/XlZ \nhttps://ititli.com/Xlc \nhttps://ititli.com/Xli \nhttps://ititli.com/Xlp \nhttps://ititli.com/XlD \nhttps://ititli.com/Xla \nhttps://ititli.com/Xlb \nhttps://ititli.com/Xlz \nhttps://ititli.com/XlI\r\n\r\n----------------------------------------------------------------------------------------------------\r\n\r\n\r\nEncoder Notes: Looking For Early Access To Anything You Can Provide WEBDL, DVDScr, DVDR, BluRay,\r\nDirect Audio, Music Releases and Seedboxes. If You Got anything to offer please contact us.\r\n\r\nSupport us by donating BC - 1FgwdzPsd1y25Gea8wP1qni35uGCtmkRCD\r\n\r\nFind us and join us!","torrent":{"xt":"urn:btih:73b46d32cd0d2aa41b32f48f3e4f938c21aadc52","amp;dn":"Triple.9.2016.WEBRip.480p.x264.AAC-VYTO+%5BP2PDL%5D","amp;tr":["udp%3A%2F%2Ftracker.leechers-paradise.org%3A6969","udp%3A%2F%2Fzer0day.ch%3A1337","udp%3A%2F%2Fopen.demonii.com%3A1337","udp%3A%2F%2Ftracker.coppersurfer.tk%3A6969","udp%3A%2F%2Fexodus.desync.com%3A6969"],"infoHash":"73b46d32cd0d2aa41b32f48f3e4f938c21aadc52","infoHashBuffer":{"type":"Buffer","data":[115,180,109,50,205,13,42,164,27,50,244,143,62,79,147,140,33,170,220,82]},"announce":[],"urlList":[]}}